<svg xmlns="http://www.w3.org/2000/svg" viewBox="0 0 826.47 188.01"><defs><style>.cls-1{isolation:isolate;}.cls-2{fill:#ee6e6b;}</style></defs><title>Fichier 2</title><g id="Calque_2" data-name="Calque 2"><g id="Calque_1-2" data-name="Calque 1"><g class="cls-1"><path class="cls-2" d="M127.59,0c35.52,0,56.27,22.56,56.27,55.24,0,48.75-38.12,88.43-82,88.43H74.43l-8.3,43H0L35.79,0ZM85.32,87.13H96.47c13.22,0,18.93-9.33,18.93-19.71,0-6.48-3.37-10.89-13-10.89H91.28Z"/><path class="cls-2" d="M173.23,186.71,209,0h66.39L239.36,186.71Z"/><path class="cls-2" d="M265.55,186.71,301.34,0h66.38l-36,186.71Z"/><path class="cls-2" d="M357.87,186.71,393.92,0H460.3L447.08,67.17c27-3.12,42.78-21,46.93-67.17h66.65c-1,34-11.93,72.61-54.2,95.17,1,26.45,14.52,36.05,39.42,36.05l-6.74,55.49a183.41,183.41,0,0,1-20,1.3c-36.57,0-62.5-16.34-67.17-70.8-5.18,0-13.22-.51-13.22-.51l-14.78,70Z"/><path class="cls-2" d="M684.1,58.09,659.2,186.71H592.82L617.71,57.83H567.66L578.81,0H745.3L734.15,58.09Z"/><path class="cls-2" d="M724.3,186.71,760.08,0h66.39l-36,186.71Z"/></g></g></g></svg>