<?xml version="1.0" encoding="utf-8"?>
<!-- Generator: Adobe Illustrator 24.0.2, SVG Export Plug-In . SVG Version: 6.00 Build 0)  -->
<svg version="1.1" id="Calque_1" xmlns="http://www.w3.org/2000/svg" xmlns:xlink="http://www.w3.org/1999/xlink" x="0px" y="0px"
	 viewBox="0 0 841.9 595.3" style="enable-background:new 0 0 841.9 595.3;" xml:space="preserve">
<style type="text/css">
	.st0{fill:#FFFFFF;}
	.st1{enable-background:new    ;}
	.st2{fill:#EE6E6B;}
</style>
<rect class="st0" width="841.9" height="595.3"/>
<g class="st1">
	<path class="st2" d="M130.6,196.1c35.5,0,56.3,22.6,56.3,55.2c0,48.8-38.1,88.4-81.9,88.4H77.5l-8.3,43H3l35.8-186.7H130.6z
		 M88.3,283.2h11.2c13.2,0,18.9-9.3,18.9-19.7c0-6.5-3.4-10.9-13-10.9H94.3L88.3,283.2z"/>
	<path class="st2" d="M176.3,382.8L212,196.1h66.4l-36,186.7H176.3z"/>
	<path class="st2" d="M268.6,382.8l35.8-186.7h66.4l-36,186.7H268.6z"/>
	<path class="st2" d="M360.9,382.8l36-186.7h66.4l-13.2,67.2c27-3.1,42.8-21,46.9-67.2h66.6c-1,34-11.9,72.6-54.2,95.2
		c1,26.5,14.5,36,39.4,36l-6.7,55.5c-7,0.8-13.7,1.3-20,1.3c-36.6,0-62.5-16.3-67.2-70.8c-5.2,0-13.2-0.5-13.2-0.5l-14.8,70H360.9z"
		/>
	<path class="st2" d="M687.1,254.2l-24.9,128.6h-66.4l24.9-128.9h-50l11.2-57.8h166.5l-11.2,58.1H687.1z"/>
	<path class="st2" d="M727.3,382.8l35.8-186.7h66.4l-36,186.7H727.3z"/>
</g>
</svg>
